<?xml version="1.0" standalone="no"?>
<!DOCTYPE svg PUBLIC "-//W3C//DTD SVG 20010904//EN"
 "http://www.w3.org/TR/2001/REC-SVG-20010904/DTD/svg10.dtd">
<svg version="1.0" xmlns="http://www.w3.org/2000/svg"
 width="400.000000pt" height="400.000000pt" viewBox="0 0 400.000000 400.000000"
 preserveAspectRatio="xMidYMid meet">
<metadata>
Created by potrace 1.14, written by Peter Selinger 2001-2017
</metadata>
<g transform="translate(0.000000,400.000000) scale(0.100000,-0.100000)"
fill="#000000" stroke="none">
<path d="M1466 3950 c-4 -28 -9 -57 -12 -65 -5 -11 -2 -13 10 -9 12 5 16 0 16
-16 0 -18 -3 -20 -14 -11 -11 9 -15 7 -19 -11 -11 -43 -31 -197 -26 -201 2 -3
14 -8 27 -11 20 -7 22 -4 22 26 0 18 9 78 19 133 11 55 23 126 26 158 7 56 7
57 -18 57 -22 0 -25 -5 -31 -50z"/>
<path d="M1547 3980 c-14 -59 -28 -133 -47 -244 -18 -97 -19 -120 -8 -127 13
-8 28 -12 28 -6 23 120 67 393 63 397 -2 2 -8 -2 -12 -9 -7 -11 -9 -11 -14 0
-3 9 -7 4 -10 -11z"/>
<path d="M1610 3986 c0 -9 5 -16 10 -16 6 0 10 -5 10 -11 0 -6 -6 -9 -14 -6
-10 4 -17 -19 -30 -91 -10 -54 -24 -132 -33 -175 -15 -82 -13 -107 11 -107 9
0 18 22 26 68 6 37 20 114 31 172 27 152 27 174 7 178 -11 2 -18 -3 -18 -12z"/>
<path d="M1673 3960 c4 -18 3 -29 -2 -25 -10 6 -17 -25 -51 -224 -22 -126 -21
-151 3 -151 10 0 19 30 31 103 17 100 43 243 51 282 3 13 -3 25 -17 34 -20 12
-21 12 -15 -19z"/>
<path d="M1726 3943 c-4 -8 -13 -54 -21 -102 -8 -47 -23 -132 -33 -189 -10
-56 -17 -104 -14 -107 2 -2 25 6 51 19 56 29 107 41 115 27 10 -16 -5 -41 -30
-47 -13 -4 -28 -11 -32 -18 -4 -6 -27 -20 -52 -31 -25 -10 -62 -32 -82 -48
-21 -15 -42 -26 -48 -22 -5 3 -8 0 -5 -7 2 -7 -2 -22 -11 -33 -13 -17 -16 -18
-24 -5 -8 13 -10 12 -10 -4 0 -13 -5 -17 -19 -13 -21 5 -57 -29 -81 -74 -17
-32 -31 -39 -52 -28 -12 6 -18 6 -18 -1 0 -5 7 -10 15 -10 8 0 15 -4 15 -10 0
-5 -8 -10 -17 -10 -14 0 -15 -2 -4 -9 11 -7 11 -15 1 -46 -7 -21 -13 -71 -14
-112 0 -40 -4 -73 -8 -73 -4 0 -6 -8 -6 -17 1 -10 -6 -42 -15 -71 -9 -29 -11
-50 -6 -46 7 4 9 -5 7 -22 -2 -16 -7 -28 -12 -26 -5 2 -16 -11 -24 -28 -24
-49 -36 -21 -36 89 -1 96 0 99 17 80 25 -27 44 -24 49 9 3 15 7 34 9 42 2 9
-2 14 -10 12 -7 -1 -19 2 -25 7 -9 8 -19 5 -34 -9 -15 -15 -23 -17 -28 -8 -5
7 -13 75 -19 151 -10 132 -10 139 8 149 16 8 17 12 6 19 -28 18 -35 7 -53 -88
-10 -54 -31 -163 -46 -243 -16 -80 -52 -266 -80 -413 -29 -151 -48 -273 -43
-278 9 -9 303 -72 309 -66 5 5 -20 184 -44 317 -7 41 -6 47 17 67 28 25 41 22
41 -10 0 -13 7 -33 16 -46 16 -22 16 -24 0 -33 -9 -5 -16 -18 -16 -29 0 -11 4
-18 8 -15 4 2 6 -11 4 -30 -2 -19 -8 -34 -13 -34 -5 0 -9 -12 -9 -26 0 -18 4
-25 14 -21 17 7 26 -21 26 -85 0 -26 5 -59 11 -75 11 -27 16 -63 21 -165 2
-27 6 -48 9 -48 4 0 3 -17 -2 -37 -7 -33 -4 -46 21 -90 32 -57 36 -68 19 -57
-8 5 -9 -6 -4 -37 10 -63 44 -149 61 -156 8 -3 11 -9 8 -15 -9 -14 59 -107 79
-108 9 0 18 -4 18 -10 1 -5 2 -13 3 -17 0 -5 11 -18 24 -30 12 -13 22 -29 22
-37 0 -8 9 -18 20 -21 11 -3 20 -12 20 -20 0 -7 7 -15 15 -19 8 -3 15 -15 15
-27 0 -12 8 -23 20 -26 11 -3 20 -9 20 -14 0 -11 -41 -49 -52 -49 -5 0 -6 -5
-2 -12 5 -8 2 -9 -9 -5 -10 4 -16 2 -14 -5 1 -6 -4 -13 -12 -16 -8 -3 -11 0
-7 7 4 6 0 11 -9 11 -9 0 -14 -3 -12 -7 3 -5 -5 -9 -16 -10 -12 0 -44 -11 -72
-24 -27 -13 -56 -24 -64 -25 -8 -2 -21 -11 -30 -20 -15 -17 -15 -17 4 -4 17
12 18 12 8 0 -17 -19 -46 -22 -39 -4 4 11 2 12 -17 1 -12 -6 -28 -19 -35 -27
-7 -8 -11 -9 -7 -2 3 6 2 12 -3 12 -6 0 -13 -7 -16 -16 -3 -8 -10 -13 -15 -9
-5 3 -17 -5 -26 -17 l-17 -23 7 24 7 23 -33 -18 c-19 -10 -43 -26 -53 -34 -12
-9 -16 -10 -12 -2 4 6 2 12 -3 12 -6 0 -11 -5 -11 -12 0 -6 -3 -8 -7 -5 -3 4
-15 0 -25 -10 -10 -9 -18 -12 -18 -8 0 4 -10 0 -22 -11 -12 -10 -18 -13 -14
-6 4 6 3 12 -2 12 -5 0 -23 -20 -41 -45 -18 -25 -35 -45 -38 -45 -3 0 7 17 23
37 21 28 23 35 10 30 -10 -4 -29 -10 -42 -13 -13 -3 -21 -11 -18 -16 4 -6 -2
-5 -14 1 -14 7 -23 8 -27 1 -4 -6 -10 -8 -15 -5 -5 3 -11 2 -14 -3 -7 -12 27
-11 35 0 3 5 9 3 12 -5 4 -11 -2 -14 -31 -12 -22 2 -44 -3 -54 -12 -9 -8 -22
-12 -29 -7 -7 4 -10 3 -6 -3 6 -10 -11 -19 -52 -28 -8 -2 -18 -10 -22 -17 -5
-7 -9 -9 -9 -4 0 18 -25 -14 -43 -57 -16 -38 -17 -24 -2 30 3 10 -5 -4 -19
-30 -30 -61 -43 -75 -21 -22 9 22 19 45 21 51 8 19 -24 11 -53 -13 -15 -14
-22 -22 -15 -18 15 8 16 12 -8 -63 -22 -72 -26 -106 -5 -52 19 49 18 19 -1
-47 -23 -81 -9 -76 17 6 13 39 25 69 27 66 2 -2 -5 -34 -17 -72 -29 -92 -51
-201 -50 -243 1 -23 8 -4 21 58 11 51 23 91 25 89 2 -3 -7 -67 -21 -143 -21
-115 -46 -323 -46 -384 0 -31 19 7 23 45 4 40 4 40 5 -7 l2 -48 60 0 c45 0 62
4 66 15 4 8 10 15 15 15 4 0 6 -7 3 -15 -6 -14 36 -15 370 -14 207 0 376 2
377 2 0 1 2 22 5 47 3 25 10 61 15 80 6 26 7 18 3 -30 -3 -36 -8 -73 -10 -82
-5 -16 10 -17 176 -17 102 0 178 4 175 9 -3 5 -1 11 5 15 5 3 10 -1 10 -9 0
-14 19 -16 134 -16 98 0 136 3 139 13 4 8 6 8 6 0 1 -9 225 -12 916 -13 l915
-1 0 435 0 435 -102 49 c-57 27 -125 60 -153 72 -71 32 -191 107 -251 157 -51
43 -110 63 -186 63 -46 0 -156 56 -171 88 -44 90 -96 451 -112 787 -2 33 -5
67 -9 75 -3 8 -6 29 -8 45 -3 25 2 32 27 41 17 6 35 22 42 35 22 44 35 163 32
279 l-4 115 -43 71 c-47 78 -75 98 -119 85 -29 -9 -29 -8 -48 63 -44 174 -120
310 -229 414 -62 59 -97 82 -188 126 -62 29 -134 61 -160 71 -56 21 -73 38
-63 62 5 10 9 23 9 28 1 6 8 36 15 69 11 48 11 60 0 67 -17 10 -28 3 -28 -19
0 -26 -28 -152 -35 -159 -15 -16 -15 11 3 98 14 69 16 96 8 101 -17 10 -25
-10 -39 -93 -11 -69 -22 -99 -32 -88 -2 2 4 47 14 99 17 90 15 120 -8 106 -6
-4 -11 -14 -11 -24 0 -15 -13 -89 -27 -151 -3 -14 -9 -20 -14 -15 -6 6 -2 47
10 104 11 59 15 99 9 104 -16 18 -27 -7 -43 -98 -9 -49 -18 -91 -21 -94 -15
-15 -14 16 3 107 10 55 17 103 14 106 -19 18 -31 -5 -47 -96 -10 -55 -22 -102
-27 -105 -12 -7 -10 9 9 119 14 85 15 100 2 107 -14 10 -17 -1 -49 -164 -7
-32 -15 -54 -20 -50 -4 5 1 58 12 118 16 88 17 110 7 117 -8 4 -14 7 -16 6 -3
-3 -13 -51 -29 -142 -18 -97 -21 -108 -33 -101 -5 3 -5 26 1 53 38 197 39 212
6 213 -13 0 -9 -38 5 -43 8 -4 7 -6 -4 -6 -11 -1 -20 -27 -34 -107 -10 -58
-22 -107 -27 -110 -12 -8 -10 11 13 147 19 114 19 123 3 138 -15 15 -16 14
-12 -16 2 -18 1 -30 -3 -27 -8 5 -12 -11 -35 -151 -15 -95 -26 -127 -37 -108
-2 4 6 60 18 124 31 158 34 193 14 197 -12 2 -20 -21 -38 -117 -12 -66 -24
-142 -28 -170 -5 -48 -17 -70 -29 -58 -3 3 4 54 15 114 28 151 41 225 41 239
0 19 -28 25 -34 7z m294 -359 c0 -2 -7 -4 -15 -4 -8 0 -15 4 -15 10 0 5 7 7
15 4 8 -4 15 -8 15 -10z m43 -11 c-7 -2 -19 -2 -25 0 -7 3 -2 5 12 5 14 0 19
-2 13 -5z m-623 -1133 c0 -5 -2 -10 -4 -10 -3 0 -8 5 -11 10 -3 6 -1 10 4 10
6 0 11 -4 11 -10z m287 -90 c0 -28 6 -57 13 -64 8 -11 8 -16 -1 -22 -9 -5 -8
-10 3 -18 41 -31 30 -76 -18 -76 -43 0 -64 35 -46 75 6 14 9 38 6 53 -4 19 -1
32 10 41 9 8 16 24 16 37 0 47 15 23 17 -26z m-109 -160 c12 0 10 -5 -8 -17
-14 -9 -28 -21 -31 -26 -10 -14 -21 11 -13 26 15 23 29 35 32 26 2 -5 11 -9
20 -9z m651 -276 c10 -22 9 -31 -4 -50 -27 -42 -75 -25 -75 26 0 53 58 70 79
24z m-104 -36 c8 -47 -8 -68 -53 -68 -13 0 -30 -6 -38 -14 -8 -8 -36 -18 -62
-22 -26 -4 -68 -17 -94 -29 -27 -13 -48 -19 -48 -13 0 6 -11 8 -25 4 -26 -7
-65 8 -65 24 0 17 34 50 52 50 9 0 21 7 25 15 6 9 26 16 53 18 25 1 50 7 55
12 18 19 86 38 97 27 6 -6 18 -1 33 14 38 38 62 32 70 -18z m-375 2 c0 -5 -4
-10 -10 -10 -5 0 -10 5 -10 10 0 6 5 10 10 10 6 0 10 -4 10 -10z m-84 -16 c-3
-9 -6 -18 -6 -20 0 -2 -7 -4 -15 -4 -18 0 -19 12 -3 28 17 17 31 15 24 -4z
m-216 -119 c0 -8 -2 -15 -4 -15 -2 0 -6 7 -10 15 -3 8 -1 15 4 15 6 0 10 -7
10 -15z m25 -25 c-3 -5 -1 -20 5 -32 10 -21 10 -21 -9 2 -14 18 -16 27 -8 32
16 10 19 10 12 -2z m457 -11 c-12 -5 -30 -5 -39 -2 -12 5 -14 3 -7 -8 9 -16
15 -34 17 -63 2 -23 -35 -46 -75 -46 -21 0 -28 -6 -33 -29 -3 -17 -1 -39 5
-51 18 -34 -1 -44 -48 -24 -23 9 -39 20 -36 25 3 5 -2 19 -10 31 -16 23 -21
94 -8 114 11 17 43 31 87 38 22 4 44 11 49 16 5 5 35 9 65 9 42 -1 50 -4 33
-10z m-397 -79 c3 -5 1 -10 -4 -10 -6 0 -11 5 -11 10 0 6 2 10 4 10 3 0 8 -4
11 -10z m317 -290 c26 -16 29 -20 15 -26 -21 -8 -22 -24 -2 -24 8 0 15 -8 14
-17 0 -11 -3 -13 -6 -5 -2 6 -12 12 -21 12 -26 1 -52 25 -52 49 0 11 -4 21
-10 21 -15 0 -12 38 3 43 6 2 15 -4 19 -14 4 -11 22 -28 40 -39z m66 13 c2 -8
-5 -13 -17 -13 -21 0 -35 13 -24 24 10 10 36 3 41 -11z m-8 -88 c0 -8 -4 -17
-10 -20 -6 -4 -10 5 -10 20 0 15 4 24 10 20 6 -3 10 -12 10 -20z m-184 -65 c8
0 14 -4 14 -10 0 -5 7 -10 15 -10 12 0 15 -14 16 -62 0 -35 2 -75 4 -90 4 -33
34 -98 45 -98 5 0 11 -8 14 -18 7 -20 132 -118 147 -114 5 1 9 -5 9 -14 0 -13
3 -14 13 -5 16 13 37 -4 37 -29 0 -9 11 -23 25 -30 16 -9 25 -23 26 -39 1 -25
2 -25 9 4 4 17 8 22 9 13 0 -10 8 -18 16 -18 9 0 15 -9 15 -22 0 -15 -3 -19
-8 -11 -6 10 -12 10 -28 -2 -16 -13 -16 -14 -1 -9 13 5 17 1 17 -15 0 -19 -2
-20 -20 -9 -11 7 -20 20 -20 28 0 13 -1 13 -10 0 -6 -9 -13 -11 -17 -5 -5 6
-20 11 -36 12 -15 1 -40 11 -56 22 -35 25 -37 26 -43 4 -3 -10 6 -28 19 -41
16 -16 23 -18 23 -8 0 8 -6 17 -12 19 -10 4 -10 6 -1 6 16 1 26 -17 19 -34 -4
-12 -10 -11 -38 2 -18 9 -41 23 -51 31 -9 8 -20 13 -22 10 -8 -8 77 -60 165
-101 85 -41 82 -50 -4 -12 -31 14 -56 22 -56 19 0 -2 -6 0 -12 6 -7 6 -40 28
-73 49 -33 21 -70 48 -82 60 -12 11 -26 21 -30 21 -9 0 -50 64 -81 125 -47 94
-55 276 -16 360 23 49 38 61 42 35 2 -11 10 -20 18 -20z m-168 -40 c-7 -10
-14 -17 -17 -15 -4 4 18 35 25 35 2 0 -1 -9 -8 -20z m13 -63 c-15 -31 -31 -54
-36 -50 -4 5 -5 3 -2 -4 4 -6 -2 -32 -13 -58 -12 -27 -18 -56 -14 -68 4 -12 2
-17 -4 -13 -6 4 -8 -3 -5 -16 4 -19 3 -21 -7 -8 -10 13 -11 12 -6 -4 4 -10 2
-33 -3 -50 -5 -17 -12 -44 -15 -59 -4 -17 -11 -25 -18 -21 -7 4 -8 3 -4 -4 6
-10 -2 -88 -9 -80 -1 2 -5 17 -9 33 -5 23 -4 27 5 15 8 -12 9 -10 5 12 -3 14
-9 34 -12 45 -5 15 -4 15 5 3 6 -8 11 -13 11 -10 1 3 3 34 4 70 2 36 8 74 14
85 6 11 18 41 28 68 9 26 21 47 26 47 5 0 7 4 4 9 -8 13 4 42 15 36 4 -3 15 8
24 25 8 16 12 30 8 30 -4 0 2 6 13 14 10 8 20 14 21 12 1 -1 -11 -27 -26 -59z
m259 -7 c30 -30 50 -38 50 -20 0 14 36 13 63 -2 32 -17 86 -16 91 2 3 11 6 9
11 -6 5 -15 14 -21 36 -20 17 1 27 6 25 12 -3 7 3 10 16 6 11 -3 24 1 29 9 6
10 11 11 17 3 4 -7 16 -13 27 -15 13 -3 21 -14 23 -31 2 -18 10 -28 24 -30 37
-5 34 -28 -3 -24 -18 2 -44 -3 -58 -11 -14 -7 -39 -19 -56 -25 -16 -6 -32 -12
-35 -14 -3 -1 -15 -5 -28 -9 -18 -6 -20 -10 -11 -21 6 -8 18 -14 25 -14 7 0
11 -6 8 -14 -7 -19 33 -31 51 -16 11 9 23 9 46 1 44 -15 69 -14 69 4 0 25 65
20 82 -7 12 -18 24 -22 64 -21 45 1 179 33 205 49 15 9 30 -17 23 -40 -6 -18
-4 -17 25 3 l31 22 9 -23 c8 -21 10 -21 16 -5 7 17 8 17 21 0 18 -24 18 -36 0
-30 -9 4 -17 -2 -21 -14 -4 -10 -11 -19 -18 -19 -8 0 -7 -4 1 -12 20 -20 -67
-35 -193 -32 -109 2 -333 42 -447 80 -106 35 -219 131 -238 204 -15 59 -23
110 -16 110 4 0 20 -13 36 -30z m-390 0 c-6 -11 -13 -20 -16 -20 -2 0 0 9 6
20 6 11 13 20 16 20 2 0 0 -9 -6 -20z m41 -23 c-10 -9 -11 -8 -5 6 3 10 9 15
12 12 3 -3 0 -11 -7 -18z m-115 -73 c-38 -76 -47 -81 -16 -9 29 67 24 69 -10
5 -16 -30 -29 -49 -30 -42 0 7 -4 10 -10 7 -11 -7 18 66 32 80 6 6 6 1 -1 -12
-6 -12 -11 -28 -11 -35 1 -7 10 4 21 25 11 21 24 35 29 32 6 -4 13 1 16 10 4
9 8 14 10 12 2 -2 -11 -35 -30 -73z m-156 38 c0 -5 -7 -17 -15 -28 -14 -18
-14 -17 -4 9 12 27 19 34 19 19z m20 -12 c-6 -11 -13 -20 -16 -20 -2 0 0 9 6
20 6 11 13 20 16 20 2 0 0 -9 -6 -20z m48 -5 c-6 -14 -13 -23 -15 -21 -5 5 15
46 22 46 3 0 -1 -11 -7 -25z m-33 -15 c-9 -16 -18 -30 -21 -30 -2 0 2 14 11
30 9 17 18 30 21 30 2 0 -2 -13 -11 -30z m48 -5 c-9 -19 -18 -33 -21 -31 -4 5
26 66 33 66 3 0 -3 -16 -12 -35z m-151 3 c-15 -15 -16 -31 0 -22 7 4 8 3 4 -5
-4 -6 -11 -9 -16 -6 -4 3 -18 -7 -30 -22 -18 -22 -19 -23 -6 -3 9 14 21 35 28
48 6 12 16 22 22 22 6 0 5 -5 -2 -12z m388 -39 c-11 -24 -20 -39 -20 -32 0 15
32 84 37 79 2 -1 -6 -23 -17 -47z m-420 34 c-1 -5 -12 -21 -26 -38 -17 -20
-22 -24 -17 -10 6 18 5 19 -13 5 -18 -14 -18 -14 -5 2 7 10 17 15 22 13 5 -3
14 3 21 15 14 21 18 25 18 13z m91 -26 c-10 -9 -11 -8 -5 6 3 10 9 15 12 12 3
-3 0 -11 -7 -18z m334 -63 c-27 -62 -65 -183 -64 -205 0 -8 9 9 19 36 20 55
27 51 9 -5 -6 -19 -26 -107 -44 -195 -36 -172 -44 -188 -20 -36 9 52 13 96 10
99 -3 3 -5 -6 -6 -19 0 -13 -3 -19 -6 -12 -13 33 98 393 121 393 3 0 -5 -25
-19 -56z m-535 42 c0 -2 -8 -10 -17 -17 -16 -13 -17 -12 -4 4 13 16 21 21 21
13z m40 -20 c0 -2 -8 -10 -17 -17 -16 -13 -17 -12 -4 4 13 16 21 21 21 13z
m255 -37 c-5 -14 -3 -19 4 -15 7 5 7 -2 0 -24 -12 -34 -24 -42 -14 -9 5 14 3
19 -4 15 -7 -5 -7 2 0 24 12 34 24 42 14 9z m-335 7 c0 -2 -8 -10 -17 -17 -16
-13 -17 -12 -4 4 13 16 21 21 21 13z m30 0 c0 -2 -8 -10 -17 -17 -16 -13 -17
-12 -4 4 13 16 21 21 21 13z m-159 -41 c-31 -35 -65 -104 -57 -112 2 -3 11 8
20 24 20 36 20 26 1 -20 -19 -47 -19 -70 1 -34 8 15 17 27 19 27 5 0 -21 -75
-36 -103 -6 -11 -8 -21 -5 -24 2 -3 12 9 21 27 27 51 26 29 0 -36 -28 -68 -33
-98 -10 -68 19 25 18 21 -5 -54 -27 -85 -24 -98 6 -37 31 61 26 37 -15 -75
l-32 -85 6 55 c16 139 4 418 -17 389 -9 -14 -4 41 9 86 13 45 -10 2 -28 -52
-10 -33 -16 -43 -13 -23 9 49 37 117 42 100 3 -9 10 -6 23 11 16 20 18 21 13
4 -6 -18 -4 -17 21 5 l27 25 -26 -39 c-14 -21 -26 -44 -26 -50 0 -6 6 -2 12 9
11 21 69 85 76 85 2 0 -10 -16 -27 -35z m-196 -86 c-13 -30 -22 -43 -18 -29 4
14 7 35 8 47 0 11 3 19 6 17 4 -2 10 3 13 12 4 9 9 15 12 12 2 -3 -7 -30 -21
-59z m886 34 c-12 -20 -14 -14 -5 12 4 9 9 14 11 11 3 -2 0 -13 -6 -23z m-247
-8 c-4 -8 -11 -12 -16 -9 -6 4 -5 10 3 15 19 12 19 11 13 -6z m801 -45 c-3 -5
-10 -10 -16 -10 -5 0 -9 5 -9 10 0 6 7 10 16 10 8 0 12 -4 9 -10z m-1412 -63
c-9 -32 -18 -55 -20 -53 -3 3 3 30 12 61 9 32 18 55 20 53 3 -2 -3 -30 -12
-61z m580 38 c-3 -9 -8 -14 -10 -11 -3 3 -2 9 2 15 9 16 15 13 8 -4z m278 -8
c-10 -9 -11 -8 -5 6 3 10 9 15 12 12 3 -3 0 -11 -7 -18z m619 -13 c0 -8 -4
-12 -10 -9 -5 3 -10 13 -10 21 0 8 5 12 10 9 6 -3 10 -13 10 -21z m30 -9 c0
-13 5 -25 12 -27 7 -3 9 -12 4 -23 -5 -13 -10 -15 -18 -7 -13 13 -20 95 -7 87
5 -4 9 -17 9 -30z m25 6 c3 -5 1 -12 -5 -16 -5 -3 -10 1 -10 9 0 18 6 21 15 7z
m-1508 -23 c-3 -8 -6 -5 -6 6 -1 11 2 17 5 13 3 -3 4 -12 1 -19z m826 2 c-3
-12 -8 -19 -11 -16 -5 6 5 36 12 36 2 0 2 -9 -1 -20z m-89 -69 c-4 -17 -9 -30
-11 -27 -3 2 -2 19 2 36 9 41 17 33 9 -9z m70 0 c-4 -17 -9 -30 -11 -27 -3 2
-2 19 2 36 9 41 17 33 9 -9z m662 4 c14 -13 17 -13 32 2 16 16 17 15 20 -6 2
-12 1 -25 -1 -28 -10 -9 -77 21 -77 34 0 17 8 16 26 -2z m-1519 -17 c-3 -8 -6
-5 -6 6 -1 11 2 17 5 13 3 -3 4 -12 1 -19z m1413 0 c0 -6 -6 -5 -15 2 -8 7
-15 14 -15 16 0 2 7 1 15 -2 8 -4 15 -11 15 -16z m207 -10 c-3 -8 -6 -5 -6 6
-1 11 2 17 5 13 3 -3 4 -12 1 -19z m20 -15 c-3 -10 -5 -4 -5 12 0 17 2 24 5
18 2 -7 2 -21 0 -30z m32 20 c0 -5 -4 -17 -9 -28 -8 -18 -9 -17 -9 8 -1 15 4
27 9 27 6 0 10 -3 9 -7z m38 -15 c-3 -8 -6 -5 -6 6 -1 11 2 17 5 13 3 -3 4
-12 1 -19z m-710 -10 c-3 -8 -6 -5 -6 6 -1 11 2 17 5 13 3 -3 4 -12 1 -19z
m393 12 c0 -5 -2 -10 -4 -10 -3 0 -8 5 -11 10 -3 6 -1 10 4 10 6 0 11 -4 11
-10z m70 0 c0 -5 -2 -10 -4 -10 -3 0 -8 5 -11 10 -3 6 -1 10 4 10 6 0 11 -4
11 -10z m-40 -10 c0 -5 -2 -10 -4 -10 -3 0 -8 5 -11 10 -3 6 -1 10 4 10 6 0
11 -4 11 -10z m-683 -22 c-3 -8 -6 -5 -6 6 -1 11 2 17 5 13 3 -3 4 -12 1 -19z
m30 0 c-3 -8 -6 -5 -6 6 -1 11 2 17 5 13 3 -3 4 -12 1 -19z m58 -85 c-25 -139
-36 -183 -29 -118 8 80 36 227 42 221 2 -3 -3 -49 -13 -103z m39 63 c-3 -21
-9 -35 -11 -32 -3 3 -2 21 1 42 4 20 10 34 12 31 3 -3 2 -21 -2 -41z m154 -13
c-12 -80 -19 -90 -11 -18 5 55 10 75 17 75 2 0 -1 -26 -6 -57z m-314 13 c-3
-15 -8 -25 -11 -23 -2 3 -1 17 3 31 3 15 8 25 11 23 2 -3 1 -17 -3 -31z m83
-8 c-3 -7 -5 -2 -5 12 0 14 2 19 5 13 2 -7 2 -19 0 -25z m500 0 c-3 -7 -5 -2
-5 12 0 14 2 19 5 13 2 -7 2 -19 0 -25z m-300 -10 c-3 -7 -5 -2 -5 12 0 14 2
19 5 13 2 -7 2 -19 0 -25z m-260 0 c-3 -8 -6 -5 -6 6 -1 11 2 17 5 13 3 -3 4
-12 1 -19z m28 -18 c-4 -17 -9 -29 -12 -26 -3 2 -2 19 2 36 4 17 9 29 12 26 3
-2 2 -19 -2 -36z m280 -80 l-14 -105 4 80 c4 82 16 157 22 140 1 -6 -4 -57
-12 -115z m292 88 c-3 -8 -6 -5 -6 6 -1 11 2 17 5 13 3 -3 4 -12 1 -19z m198
2 c22 -10 33 -19 25 -19 -8 0 -33 8 -55 18 -22 11 -33 19 -25 19 8 0 33 -8 55
-18z m-838 -42 c-3 -7 -5 -2 -5 12 0 14 2 19 5 13 2 -7 2 -19 0 -25z m913 16
c0 -2 -7 -4 -15 -4 -8 0 -15 4 -15 10 0 5 7 7 15 4 8 -4 15 -8 15 -10z m-760
-70 c-10 -64 -20 -95 -20 -64 0 26 22 141 27 137 2 -3 -1 -35 -7 -73z m-68 39
c-3 -16 -7 -22 -10 -15 -4 13 4 42 11 42 2 0 2 -12 -1 -27z m205 5 c-3 -8 -6
-5 -6 6 -1 11 2 17 5 13 3 -3 4 -12 1 -19z m380 -10 c-3 -8 -6 -5 -6 6 -1 11
2 17 5 13 3 -3 4 -12 1 -19z m238 12 c3 -5 1 -10 -4 -10 -6 0 -11 5 -11 10 0
6 2 10 4 10 3 0 8 -4 11 -10z m215 -10 l25 -11 -25 6 c-14 2 -40 5 -57 5 -18
0 -33 4 -33 8 0 11 59 6 90 -8z m-1103 -12 c-3 -8 -6 -5 -6 6 -1 11 2 17 5 13
3 -3 4 -12 1 -19z m30 0 c-3 -8 -6 -5 -6 6 -1 11 2 17 5 13 3 -3 4 -12 1 -19z
m324 -73 c-7 -72 -8 -79 -9 -35 -2 52 7 134 14 128 1 -2 -1 -44 -5 -93z m806
79 c-3 -3 -12 -4 -19 -1 -8 3 -5 6 6 6 11 1 17 -2 13 -5z m137 -2 c3 -5 -1 -9
-9 -9 -8 0 -12 4 -9 9 3 4 7 8 9 8 2 0 6 -4 9 -8z m-1137 -39 c-3 -10 -5 -4
-5 12 0 17 2 24 5 18 2 -7 2 -21 0 -30z m135 15 c-7 -7 -12 -8 -12 -2 0 14 12
26 19 19 2 -3 -1 -11 -7 -17z m-335 -20 c-3 -8 -6 -5 -6 6 -1 11 2 17 5 13 3
-3 4 -12 1 -19z m37 7 c-4 -8 -8 -15 -10 -15 -2 0 -4 7 -4 15 0 8 4 15 10 15
5 0 7 -7 4 -15z m50 -34 c-4 -17 -9 -30 -11 -27 -3 2 -2 19 2 36 9 41 17 33 9
-9z m-620 -61 c-14 -36 -31 -78 -39 -95 l-15 -30 7 30 c4 17 7 40 6 53 0 12 3
22 8 22 5 0 19 20 31 45 31 63 32 51 2 -25z m643 38 c-3 -7 -5 -2 -5 12 0 14
2 19 5 13 2 -7 2 -19 0 -25z m-126 -5 c-12 -20 -14 -14 -5 12 4 9 9 14 11 11
3 -2 0 -13 -6 -23z m204 -15 c-3 -24 -13 -90 -20 -147 -8 -57 -17 -106 -20
-109 -8 -9 -6 15 15 158 11 74 20 136 20 138 0 1 3 2 6 2 4 0 3 -19 -1 -42z
m245 32 c0 -5 -5 -10 -11 -10 -5 0 -7 5 -4 10 3 6 8 10 11 10 2 0 4 -4 4 -10z
m-13 -67 c-3 -10 -5 -2 -5 17 0 19 2 27 5 18 2 -10 2 -26 0 -35z m-380 15 c-3
-8 -6 -5 -6 6 -1 11 2 17 5 13 3 -3 4 -12 1 -19z m37 7 c-4 -8 -8 -15 -10 -15
-2 0 -4 7 -4 15 0 8 4 15 10 15 5 0 7 -7 4 -15z m78 -20 c-2 -19 -8 -37 -12
-40 -4 -2 -5 8 -3 23 10 59 21 73 15 17z m299 -35 c-6 -30 -9 -36 -10 -19 -1
33 12 99 16 79 2 -8 -1 -35 -6 -60z m-394 -2 c-3 -8 -6 -5 -6 6 -1 11 2 17 5
13 3 -3 4 -12 1 -19z m-770 -10 c-3 -8 -6 -5 -6 6 -1 11 2 17 5 13 3 -3 4 -12
1 -19z m730 -20 c-3 -7 -5 -2 -5 12 0 14 2 19 5 13 2 -7 2 -19 0 -25z m366 12
c-3 -11 -7 -20 -9 -20 -2 0 -4 9 -4 20 0 11 4 20 9 20 5 0 7 -9 4 -20z m37 -5
c0 -14 -4 -25 -9 -25 -5 0 -8 11 -7 25 1 33 16 33 16 0z m57 -17 c-3 -7 -5 -2
-5 12 0 14 2 19 5 13 2 -7 2 -19 0 -25z m-342 -30 c-4 -29 -9 -60 -11 -68 -1
-8 -3 -24 -3 -34 -1 -11 -4 -17 -7 -13 -4 3 -1 42 6 87 14 88 26 112 15 28z
m942 30 c-3 -8 -6 -5 -6 6 -1 11 2 17 5 13 3 -3 4 -12 1 -19z m-1000 -10 c-3
-8 -6 -5 -6 6 -1 11 2 17 5 13 3 -3 4 -12 1 -19z m25 -20 c-6 -6 -7 0 -4 19 5
21 7 23 10 9 2 -10 0 -22 -6 -28z m98 17 c0 -14 -4 -25 -9 -25 -4 0 -6 11 -3
25 2 14 6 25 8 25 2 0 4 -11 4 -25z m930 15 c0 -5 -4 -10 -10 -10 -5 0 -10 5
-10 10 0 6 5 10 10 10 6 0 10 -4 10 -10z m-1704 -81 c-15 -34 -26 -69 -26 -77
0 -9 -3 -13 -6 -10 -3 3 -2 34 2 69 4 40 10 57 14 45 5 -16 8 -14 20 13 7 17
15 30 17 27 2 -2 -7 -32 -21 -67z m611 39 c-3 -8 -6 -5 -6 6 -1 11 2 17 5 13
3 -3 4 -12 1 -19z m370 0 c-3 -8 -6 -5 -6 6 -1 11 2 17 5 13 3 -3 4 -12 1 -19z
m34 -14 c-9 -28 -9 -29 -10 -3 -1 14 2 29 6 32 11 12 13 2 4 -29z m-501 16 c0
-5 -5 -10 -11 -10 -5 0 -7 5 -4 10 3 6 8 10 11 10 2 0 4 -4 4 -10z m127 -22
c-3 -7 -5 -2 -5 12 0 14 2 19 5 13 2 -7 2 -19 0 -25z m-319 -15 c-5 -21 -12
-40 -15 -43 -6 -6 7 61 14 73 10 17 11 4 1 -30z m349 5 c-3 -8 -6 -5 -6 6 -1
11 2 17 5 13 3 -3 4 -12 1 -19z m-70 -10 c-3 -8 -6 -5 -6 6 -1 11 2 17 5 13 3
-3 4 -12 1 -19z m-750 -10 c-3 -8 -6 -5 -6 6 -1 11 2 17 5 13 3 -3 4 -12 1
-19z m1160 -20 c-3 -8 -6 -5 -6 6 -1 11 2 17 5 13 3 -3 4 -12 1 -19z m30 0
c-3 -8 -6 -5 -6 6 -1 11 2 17 5 13 3 -3 4 -12 1 -19z m43 2 c0 -5 -5 -10 -11
-10 -5 0 -7 5 -4 10 3 6 8 10 11 10 2 0 4 -4 4 -10z m-43 -42 c-3 -8 -6 -5 -6
6 -1 11 2 17 5 13 3 -3 4 -12 1 -19z m-737 2 c0 -5 -5 -10 -11 -10 -5 0 -7 5
-4 10 3 6 8 10 11 10 2 0 4 -4 4 -10z m277 -12 c-3 -8 -6 -5 -6 6 -1 11 2 17
5 13 3 -3 4 -12 1 -19z m200 -15 c-3 -10 -5 -5 -5 12 0 17 2 24 5 18 2 -7 2
-21 0 -30z m-240 5 c-3 -8 -6 -5 -6 6 -1 11 2 17 5 13 3 -3 4 -12 1 -19z m110
0 c-3 -8 -6 -5 -6 6 -1 11 2 17 5 13 3 -3 4 -12 1 -19z m30 -20 c-3 -7 -5 -2
-5 12 0 14 2 19 5 13 2 -7 2 -19 0 -25z m143 18 c0 -3 -4 -8 -10 -11 -5 -3
-10 -1 -10 4 0 6 5 11 10 11 6 0 10 -2 10 -4z"/>
<path d="M1885 1690 c-3 -6 1 -7 9 -4 18 7 21 14 7 14 -6 0 -13 -4 -16 -10z"/>
<path d="M1692 1020 c0 -14 2 -19 5 -12 2 6 2 18 0 25 -3 6 -5 1 -5 -13z"/>
<path d="M1711 900 c0 -8 4 -22 9 -30 12 -18 12 -2 0 25 -6 13 -9 15 -9 5z"/>
<path d="M1803 789 c-2 -23 3 -25 10 -4 4 8 3 16 -1 19 -4 3 -9 -4 -9 -15z"/>
<path d="M1841 761 c7 -11 23 -24 36 -30 13 -6 23 -15 23 -21 0 -14 -13 -13
-30 3 -12 10 -12 9 0 -6 12 -16 12 -20 -1 -28 -9 -6 -10 -9 -2 -9 7 0 22 10
34 23 19 19 21 19 15 3 -8 -24 13 -53 25 -34 16 24 9 34 -52 77 -38 27 -56 35
-48 22z"/>
<path d="M1800 741 c0 -6 4 -13 10 -16 6 -3 7 1 4 9 -7 18 -14 21 -14 7z"/>
<path d="M2055 721 c-3 -5 -1 -12 5 -16 5 -3 10 1 10 9 0 18 -6 21 -15 7z"/>
<path d="M2100 680 c0 -5 5 -10 11 -10 5 0 7 5 4 10 -3 6 -8 10 -11 10 -2 0
-4 -4 -4 -10z"/>
<path d="M2060 670 c0 -5 5 -10 11 -10 5 0 7 5 4 10 -3 6 -8 10 -11 10 -2 0
-4 -4 -4 -10z"/>
<path d="M1968 1043 c7 -3 16 -2 19 1 4 3 -2 6 -13 5 -11 0 -14 -3 -6 -6z"/>
<path d="M2200 980 c0 -5 5 -10 11 -10 5 0 7 5 4 10 -3 6 -8 10 -11 10 -2 0
-4 -4 -4 -10z"/>
<path d="M2655 790 c-3 -5 1 -10 9 -10 8 0 18 5 21 10 3 6 -1 10 -9 10 -8 0
-18 -4 -21 -10z"/>
<path d="M1496 654 c-4 -20 -5 -38 -2 -41 2 -3 8 11 12 31 3 21 4 39 1 42 -2
3 -8 -11 -11 -32z"/>
<path d="M791 813 c-10 -26 -10 -27 4 -9 8 11 15 23 15 28 0 15 -7 8 -19 -19z"/>
<path d="M1007 3623 c-7 -22 -20 -84 -147 -688 -56 -264 -119 -555 -140 -648
-37 -166 -37 -167 -16 -172 12 -3 154 -30 316 -60 162 -31 303 -59 314 -62 17
-5 18 -1 12 33 -4 22 -14 44 -21 50 -8 6 -113 30 -232 53 -120 23 -234 47
-254 52 l-36 9 33 142 c28 123 90 419 214 1008 38 181 37 179 58 175 9 -1 99
-33 200 -71 l183 -67 31 31 32 31 -30 11 c-16 6 -128 49 -249 94 -276 105
-262 101 -268 79z"/>
<path d="M1320 3555 c14 -8 32 -14 40 -14 8 0 0 6 -19 14 -42 19 -54 19 -21 0z"/>
<path d="M1470 3500 c8 -5 20 -10 25 -10 6 0 3 5 -5 10 -8 5 -19 10 -25 10 -5
0 -3 -5 5 -10z"/>
<path d="M3390 2862 c0 -4 26 -17 58 -29 86 -33 101 -37 58 -13 -48 27 -116
51 -116 42z"/>
<path d="M3551 2796 c13 -12 98 -54 122 -60 46 -11 30 3 -39 34 -58 26 -96 38
-83 26z"/>
<path d="M611 734 c0 -11 3 -14 6 -6 3 7 2 16 -1 19 -3 4 -6 -2 -5 -13z"/>
<path d="M533 694 c-15 -15 -27 -30 -25 -35 1 -5 -3 -9 -8 -9 -13 0 -9 -32 5
-43 6 -5 0 -6 -12 -2 -12 3 -25 1 -29 -6 -5 -8 -2 -10 7 -5 8 4 5 0 -6 -10
-20 -16 -20 -16 5 -11 23 6 24 5 7 -8 -11 -7 -25 -11 -33 -8 -10 4 -12 0 -8
-11 3 -9 10 -16 15 -16 6 0 -6 -14 -26 -31 -20 -18 -33 -34 -31 -37 3 -2 0
-14 -6 -26 -15 -27 -18 -57 -7 -77 5 -10 1 -26 -12 -45 -18 -27 -28 -62 -11
-39 4 6 16 17 27 25 14 11 12 4 -8 -23 -16 -21 -26 -43 -24 -50 4 -9 6 -9 6 1
1 6 6 12 12 12 6 0 2 -16 -10 -36 -27 -45 -27 -54 0 -25 30 32 35 19 8 -18
-12 -17 -19 -34 -14 -38 4 -5 10 -2 12 5 3 6 9 12 15 12 5 0 0 -13 -11 -28
-11 -16 -22 -41 -26 -58 -5 -27 -5 -27 5 -5 15 34 25 18 12 -18 l-11 -31 113
0 113 0 7 63 c8 78 -1 130 -21 123 -10 -4 -11 -1 -3 13 5 11 15 21 22 24 7 2
10 8 6 12 -4 4 -14 3 -21 -4 -11 -9 -14 -6 -14 16 -1 16 -2 80 -3 143 -1 63 1
132 4 153 5 29 3 36 -6 31 -8 -5 -7 0 2 11 14 17 13 18 -4 11 -19 -6 -19 -6
-4 11 16 17 36 113 25 113 -3 0 -19 -12 -34 -26z m-123 -263 c0 -5 -7 -12 -16
-15 -14 -5 -15 -4 -4 9 14 17 20 19 20 6z m-18 -53 c-7 -7 -12 -8 -12 -2 0 6
3 14 7 17 3 4 9 5 12 2 2 -3 -1 -11 -7 -17z"/>
<path d="M592 600 c0 -19 2 -27 5 -17 2 9 2 25 0 35 -3 9 -5 1 -5 -18z"/>
<path d="M581 553 c-1 -6 -4 -20 -7 -30 -5 -17 -5 -17 6 0 6 10 9 23 6 30 -3
9 -5 9 -5 0z"/>
<path d="M409 513 c-13 -15 -12 -15 9 -4 23 12 28 21 13 21 -5 0 -15 -7 -22
-17z"/>
<path d="M563 465 c0 -22 2 -30 4 -17 2 12 2 30 0 40 -3 9 -5 -1 -4 -23z"/>
<path d="M575 310 c0 -32 3 -56 8 -53 9 6 9 84 -1 100 -4 6 -7 -15 -7 -47z"/>
<path d="M360 339 c0 -5 5 -7 10 -4 6 3 10 8 10 11 0 2 -4 4 -10 4 -5 0 -10
-5 -10 -11z"/>
<path d="M273 317 c0 -8 6 -14 14 -14 9 0 10 4 2 14 -6 7 -12 13 -14 13 -1 0
-2 -6 -2 -13z"/>
<path d="M202 275 c2 -11 -2 -19 -8 -18 -5 1 -15 -7 -22 -18 -17 -26 0 -24 26
4 15 16 18 26 11 37 -8 12 -9 11 -7 -5z"/>
<path d="M280 262 c8 -17 8 -27 0 -37 -8 -10 -8 -14 1 -17 9 -3 6 -13 -7 -34
-16 -25 -17 -27 -1 -15 20 15 22 9 6 -22 -9 -19 -7 -18 10 3 12 15 16 27 9 31
-7 4 -6 14 2 29 9 18 9 21 0 15 -8 -5 -11 -3 -8 6 3 8 10 13 16 12 6 -2 9 4 5
13 -3 8 -8 12 -11 10 -3 -3 -11 2 -19 12 -13 15 -13 15 -3 -6z"/>
<path d="M180 215 c-7 -8 -9 -15 -4 -15 4 0 -5 -13 -21 -30 -40 -42 -17 -38
31 6 22 20 31 33 20 30 -16 -6 -17 -4 -6 9 7 8 8 15 2 15 -5 0 -15 -7 -22 -15z"/>
<path d="M140 190 c0 -5 4 -10 9 -10 6 0 13 5 16 10 3 6 -1 10 -9 10 -9 0 -16
-4 -16 -10z"/>
<path d="M235 173 c5 -18 3 -22 -9 -17 -9 3 -16 10 -16 15 0 12 -83 -48 -95
-69 -5 -9 -9 -33 -10 -53 l-1 -37 26 16 c25 16 25 16 7 -5 l-18 -21 79 -1 78
-1 17 35 c23 49 21 57 -4 17 -23 -35 -38 -38 -19 -3 8 15 8 21 0 21 -7 0 -9 9
-4 23 6 21 6 21 -14 -3 -21 -24 -21 -25 -15 -2 3 12 9 25 14 28 5 3 9 10 9 15
0 6 -5 7 -11 3 -7 -4 -9 0 -5 12 3 11 1 26 -5 34 -8 12 -9 10 -4 -7z m-25 -17
c0 -2 -8 -10 -17 -17 -16 -13 -17 -12 -4 4 13 16 21 21 21 13z m13 -23 c-4
-11 -3 -14 5 -9 17 11 15 -9 -3 -24 -13 -11 -14 -10 -8 6 6 17 5 17 -10 5 -22
-18 -22 -7 0 19 21 24 24 25 16 3z m-68 -23 c-3 -5 -16 -15 -28 -21 -21 -10
-21 -9 2 10 25 23 36 27 26 11z m25 -14 c0 -2 -16 -16 -35 -30 -19 -15 -35
-23 -35 -17 0 5 15 18 33 29 36 23 37 23 37 18z m66 -54 c-18 -16 -18 -16 -6
6 6 13 14 21 18 18 3 -4 -2 -14 -12 -24z"/>
<path d="M290 109 c-7 -11 -10 -23 -7 -25 2 -2 9 7 15 21 14 30 7 33 -8 4z"/>
</g>
</svg>
